<?xml version="1.0" encoding="UTF-8"?>
<svg width="503px" height="503px" viewBox="0 0 503 503" version="1.1" xmlns="http://www.w3.org/2000/svg" xmlns:xlink="http://www.w3.org/1999/xlink">
    <title>bitcoin-img</title>
    <g id="Page-1" stroke="none" stroke-width="1" fill="none" fill-rule="evenodd">
        <g id="bitcoin-img" fill-rule="nonzero">
            <g id="Group">
                <g id="Group-8" opacity="0.2" transform="translate(17.000000, 0.000000)" fill="#979797">
                    <g id="path0_stroke-link" transform="translate(0.000000, 2.000000)">
                        <path d="M434,112 L434.494,111.923 L434.409,111.381 L433.878,111.515 L434,112 Z M1,221 L0.877942,220.515 L0.9274429,221.495 L1,221 Z M226,254 L225.927,254.495 L226.402,254.564 L226.491,254.093 L226,254 Z M473.494,360.923 L434.494,111.923 L433.506,112.077 L472.506,361.077 L473.494,360.923 Z M433.878,111.515 L0.877942,220.515 L1.122058,221.485 L434.122,112.485 L433.878,111.515 Z M0.9274429,221.495 L225.927,254.495 L226.073,253.505 L1.0725571,220.505 L0.9274429,221.495 Z M226.491,254.093 L274.491,1.0931991 L273.509,0.9068009 L225.509,253.907 L226.491,254.093 Z" id="path0_stroke"></path>
                    </g>
                    <g id="path1_stroke-link" transform="translate(226.000000, 113.000000)">
                        <path d="M77,361 L76.5279,361.165 L76.9917,362.495 L77.4703,361.17 L77,361 Z M0.527869,143.165 L76.5279,361.165 L77.4721,360.835 L1.472131,142.835 L0.527869,143.165 Z M77.4703,361.17 L207.47,1.169822 L206.53,0.830178 L76.5297,360.83 L77.4703,361.17 Z" id="path1_stroke"></path>
                    </g>
                    <g id="path2_stroke-link" transform="translate(111.000000, 257.000000)">
                        <path d="M1,146 L0.608251,145.689 L0.181176,146.228 L0.824979,146.468 L1,146 Z M115.608,0.689303 L0.608251,145.689 L1.391749,146.311 L116.392,1.310697 L115.608,0.689303 Z M0.824979,146.468 L190.825,217.468 L191.175,216.532 L1.175021,145.532 L0.824979,146.468 Z" id="path2_stroke"></path>
                    </g>
                    <g id="path3_stroke-link" transform="translate(142.000000, 1.000000)">
                        <path d="M1,82 L0.741345,81.5721 L0.354652,81.8058 L0.548184,82.2142 L1,82 Z M83.4518,254.786 L1.451816,81.7858 L0.548184,82.2142 L82.5482,255.214 L83.4518,254.786 Z M1.258655,82.4279 L135.259,1.427899 L134.741,0.572101 L0.741345,81.572101 L1.258655,82.4279 Z" id="path3_stroke"></path>
                    </g>
                    <g id="path4_stroke-link" transform="translate(0.000000, 222.000000)">
                        <path d="M114,182 L113.96,182.498 L114.953,182.577 L114.423,181.734 L114,182 Z M1,173 L0.5,173 L0.5,173.462 L0.9603027,173.498 L1,173 Z M1,2 L1.42347,1.734155 L0.5,0.26314 L0.5,2 L1,2 Z M114.04,181.502 L1.0396973,172.502 L0.9603027,173.498 L113.96,182.498 L114.04,181.502 Z M1.5,173 L1.5,2 L0.5,2 L0.5,173 L1.5,173 Z M0.57653,2.265845 L113.577,182.266 L114.423,181.734 L1.42347,1.734155 L0.57653,2.265845 Z" id="path4_stroke"></path>
                    </g>
                    <g id="path5_stroke-link">
                        <path d="M272.5,1 L272.788,0.591163 L272.062,1.240312 L272.5,1 Z M472,365 L472.274,365.418 L472.661,365.165 L472.438,364.76 L472,365 Z M304,475 L303.681,475.385 L303.965,475.62 L304.274,475.418 L304,475 Z M1,224 L0.646447,223.646 L0.258154,224.035 L0.681034,224.385 L1,224 Z M143,82 L143.327,81.6214 L142.975,81.318 L142.646,81.6464 L143,82 Z M433.288,113.591 L272.788,0.591163 L272.212,1.408837 L432.712,114.409 L433.288,113.591 Z M272.062,1.240312 L471.562,365.24 L472.438,364.76 L272.938,0.759688 L272.062,1.240312 Z M471.726,364.582 L303.726,474.582 L304.274,475.418 L472.274,365.418 L471.726,364.582 Z M304.319,474.615 L1.318966,223.615 L0.681034,224.385 L303.681,475.385 L304.319,474.615 Z M1.353553,224.354 L143.354,82.3536 L142.646,81.6464 L0.646447,223.646 L1.353553,224.354 Z M142.673,82.3786 L470.673,365.379 L471.327,364.621 L143.327,81.6214 L142.673,82.3786 Z" id="path5_stroke"></path>
                    </g>
                    <g id="path6_stroke-link" transform="translate(11.000000, 42.000000)">
                        <polygon id="path6_stroke" points="133.148 41.5225 1.148313 0.522503 0.851687 1.477497 132.852 42.4775"></polygon>
                    </g>
                    <g id="path7_stroke-link" transform="translate(235.000000, 253.000000)">
                        <path d="M107,112 L106.638,112.345 L106.786,112.5 L107,112.5 L107,112 Z M239,111.5 L107,111.5 L107,112.5 L239,112.5 L239,111.5 Z M107.362,111.655 L1.361604,0.654685 L0.638396,1.345315 L106.638,112.345 L107.362,111.655 Z" id="path7_stroke"></path>
                    </g>
                    <g id="path8_stroke-link" transform="translate(111.000000, 364.000000)">
                        <polygon id="path8_stroke" points="1.0821995 40.4932 235.082 1.493197 234.918 0.506803 0.9178005 39.5068"></polygon>
                    </g>
                    <g id="path9_stroke-link" transform="translate(112.000000, 403.000000)">
                        <polygon id="path9_stroke" points="0.569033 1.25351 50.569 86.2535 51.431 85.7465 1.430967 0.74649"></polygon>
                    </g>
                </g>
                <g id="dots" transform="translate(146.000000, 70.000000)">
                    <g id="path10_fill-link" transform="translate(10.000000, 10.000000)" fill="#C4C4C4">
                        <path d="M3.5,7 C5.433,7 7,5.433 7,3.5 C7,1.567 5.433,0 3.5,0 C1.567,0 0,1.567 0,3.5 C0,5.433 1.567,7 3.5,7 Z" id="path10_fill"></path>
                    </g>
                    <g id="path11_stroke-link" fill="#CACACA">
                        <path d="M13.5,26.5 C20.6797,26.5 26.5,20.6797 26.5,13.5 L25.5,13.5 C25.5,20.1274 20.1274,25.5 13.5,25.5 L13.5,26.5 Z M26.5,13.5 C26.5,6.3203 20.6797,0.5 13.5,0.5 L13.5,1.5 C20.1274,1.5 25.5,6.87258 25.5,13.5 L26.5,13.5 Z M13.5,0.5 C6.3203,0.5 0.5,6.3203 0.5,13.5 L1.5,13.5 C1.5,6.87258 6.87258,1.5 13.5,1.5 L13.5,0.5 Z M0.5,13.5 C0.5,20.6797 6.3203,26.5 13.5,26.5 L13.5,25.5 C6.87258,25.5 1.5,20.1274 1.5,13.5 L0.5,13.5 Z" id="path11_stroke"></path>
                    </g>
                </g>
                <g id="dots" transform="translate(476.000000, 350.000000)">
                    <g id="path10_fill-link" transform="translate(10.000000, 10.000000)" fill="#C4C4C4">
                        <path d="M3.5,7 C5.433,7 7,5.433 7,3.5 C7,1.567 5.433,0 3.5,0 C1.567,0 0,1.567 0,3.5 C0,5.433 1.567,7 3.5,7 Z" id="path10_fill"></path>
                    </g>
                    <g id="path11_stroke-link" fill="#CACACA">
                        <path d="M13.5,26.5 C20.6797,26.5 26.5,20.6797 26.5,13.5 L25.5,13.5 C25.5,20.1274 20.1274,25.5 13.5,25.5 L13.5,26.5 Z M26.5,13.5 C26.5,6.3203 20.6797,0.5 13.5,0.5 L13.5,1.5 C20.1274,1.5 25.5,6.87258 25.5,13.5 L26.5,13.5 Z M13.5,0.5 C6.3203,0.5 0.5,6.3203 0.5,13.5 L1.5,13.5 C1.5,6.87258 6.87258,1.5 13.5,1.5 L13.5,0.5 Z M0.5,13.5 C0.5,20.6797 6.3203,26.5 13.5,26.5 L13.5,25.5 C6.87258,25.5 1.5,20.1274 1.5,13.5 L0.5,13.5 Z" id="path11_stroke"></path>
                    </g>
                </g>
                <g id="dots" transform="translate(397.000000, 211.000000)">
                    <g id="path10_fill-link" transform="translate(10.000000, 10.000000)" fill="#C4C4C4">
                        <path d="M3.5,7 C5.433,7 7,5.433 7,3.5 C7,1.567 5.433,0 3.5,0 C1.567,0 0,1.567 0,3.5 C0,5.433 1.567,7 3.5,7 Z" id="path10_fill"></path>
                    </g>
                    <g id="path11_stroke-link" fill="#CACACA">
                        <path d="M13.5,26.5 C20.6797,26.5 26.5,20.6797 26.5,13.5 L25.5,13.5 C25.5,20.1274 20.1274,25.5 13.5,25.5 L13.5,26.5 Z M26.5,13.5 C26.5,6.3203 20.6797,0.5 13.5,0.5 L13.5,1.5 C20.1274,1.5 25.5,6.87258 25.5,13.5 L26.5,13.5 Z M13.5,0.5 C6.3203,0.5 0.5,6.3203 0.5,13.5 L1.5,13.5 C1.5,6.87258 6.87258,1.5 13.5,1.5 L13.5,0.5 Z M0.5,13.5 C0.5,20.6797 6.3203,26.5 13.5,26.5 L13.5,25.5 C6.87258,25.5 1.5,20.1274 1.5,13.5 L0.5,13.5 Z" id="path11_stroke"></path>
                    </g>
                </g>
                <g id="dots" transform="translate(116.000000, 390.000000)">
                    <g id="path10_fill-link" transform="translate(10.000000, 10.000000)" fill="#C4C4C4">
                        <path d="M3.5,7 C5.433,7 7,5.433 7,3.5 C7,1.567 5.433,0 3.5,0 C1.567,0 0,1.567 0,3.5 C0,5.433 1.567,7 3.5,7 Z" id="path10_fill"></path>
                    </g>
                    <g id="path11_stroke-link" fill="#CACACA">
                        <path d="M13.5,26.5 C20.6797,26.5 26.5,20.6797 26.5,13.5 L25.5,13.5 C25.5,20.1274 20.1274,25.5 13.5,25.5 L13.5,26.5 Z M26.5,13.5 C26.5,6.3203 20.6797,0.5 13.5,0.5 L13.5,1.5 C20.1274,1.5 25.5,6.87258 25.5,13.5 L26.5,13.5 Z M13.5,0.5 C6.3203,0.5 0.5,6.3203 0.5,13.5 L1.5,13.5 C1.5,6.87258 6.87258,1.5 13.5,1.5 L13.5,0.5 Z M0.5,13.5 C0.5,20.6797 6.3203,26.5 13.5,26.5 L13.5,25.5 C6.87258,25.5 1.5,20.1274 1.5,13.5 L0.5,13.5 Z" id="path11_stroke"></path>
                    </g>
                </g>
                <g id="dots" transform="translate(166.000000, 476.000000)">
                    <g id="path10_fill-link" transform="translate(10.000000, 10.000000)" fill="#C4C4C4">
                        <path d="M3.5,7 C5.433,7 7,5.433 7,3.5 C7,1.567 5.433,0 3.5,0 C1.567,0 0,1.567 0,3.5 C0,5.433 1.567,7 3.5,7 Z" id="path10_fill"></path>
                    </g>
                    <g id="path11_stroke-link" fill="#CACACA">
                        <path d="M13.5,26.5 C20.6797,26.5 26.5,20.6797 26.5,13.5 L25.5,13.5 C25.5,20.1274 20.1274,25.5 13.5,25.5 L13.5,26.5 Z M26.5,13.5 C26.5,6.3203 20.6797,0.5 13.5,0.5 L13.5,1.5 C20.1274,1.5 25.5,6.87258 25.5,13.5 L26.5,13.5 Z M13.5,0.5 C6.3203,0.5 0.5,6.3203 0.5,13.5 L1.5,13.5 C1.5,6.87258 6.87258,1.5 13.5,1.5 L13.5,0.5 Z M0.5,13.5 C0.5,20.6797 6.3203,26.5 13.5,26.5 L13.5,25.5 C6.87258,25.5 1.5,20.1274 1.5,13.5 L0.5,13.5 Z" id="path11_stroke"></path>
                    </g>
                </g>
                <g id="path12_fill-link" transform="translate(316.000000, 470.000000)" fill="#7B7B7B">
                    <path d="M4,8 C6.20914,8 8,6.20914 8,4 C8,1.79086 6.20914,0 4,0 C1.79086,0 0,1.79086 0,4 C0,6.20914 1.79086,8 4,8 Z" id="path12_fill"></path>
                </g>
                <g id="path12_fill-link" transform="translate(26.000000, 41.000000)" fill="#7B7B7B">
                    <path d="M4,8 C6.20914,8 8,6.20914 8,4 C8,1.79086 6.20914,0 4,0 C1.79086,0 0,1.79086 0,4 C0,6.20914 1.79086,8 4,8 Z" id="path12_fill"></path>
                </g>
                <g id="path12_fill-link" transform="translate(287.000000, 0.000000)" fill="#7B7B7B">
                    <path d="M4,8 C6.20914,8 8,6.20914 8,4 C8,1.79086 6.20914,0 4,0 C1.79086,0 0,1.79086 0,4 C0,6.20914 1.79086,8 4,8 Z" id="path12_fill"></path>
                </g>
                <g id="Group-7" transform="translate(0.000000, 206.000000)" fill="#FF8800">
                    <g id="path13_fill-link" transform="translate(13.000000, 13.000000)">
                        <path d="M5.5,11 C8.53757,11 11,8.53757 11,5.5 C11,2.46243 8.53757,0 5.5,0 C2.46243,0 0,2.46243 0,5.5 C0,8.53757 2.46243,11 5.5,11 Z" id="path13_fill"></path>
                    </g>
                    <g id="path14_stroke-link">
                        <path d="M18.5,36.5 C28.4411,36.5 36.5,28.4411 36.5,18.5 L35.5,18.5 C35.5,27.8888 27.8888,35.5 18.5,35.5 L18.5,36.5 Z M36.5,18.5 C36.5,8.55887 28.4411,0.5 18.5,0.5 L18.5,1.5 C27.8888,1.5 35.5,9.11116 35.5,18.5 L36.5,18.5 Z M18.5,0.5 C8.55887,0.5 0.5,8.55887 0.5,18.5 L1.5,18.5 C1.5,9.11116 9.11116,1.5 18.5,1.5 L18.5,0.5 Z M0.5,18.5 C0.5,28.4411 8.55887,36.5 18.5,36.5 L18.5,35.5 C9.11116,35.5 1.5,27.8888 1.5,18.5 L0.5,18.5 Z" id="path14_stroke"></path>
                    </g>
                </g>
                <g id="Group-7" transform="translate(0.000000, 376.000000)" fill="#FF8800">
                    <g id="path13_fill-link" transform="translate(13.000000, 13.000000)">
                        <path d="M5.5,11 C8.53757,11 11,8.53757 11,5.5 C11,2.46243 8.53757,0 5.5,0 C2.46243,0 0,2.46243 0,5.5 C0,8.53757 2.46243,11 5.5,11 Z" id="path13_fill"></path>
                    </g>
                    <g id="path14_stroke-link">
                        <path d="M18.5,36.5 C28.4411,36.5 36.5,28.4411 36.5,18.5 L35.5,18.5 C35.5,27.8888 27.8888,35.5 18.5,35.5 L18.5,36.5 Z M36.5,18.5 C36.5,8.55887 28.4411,0.5 18.5,0.5 L18.5,1.5 C27.8888,1.5 35.5,9.11116 35.5,18.5 L36.5,18.5 Z M18.5,0.5 C8.55887,0.5 0.5,8.55887 0.5,18.5 L1.5,18.5 C1.5,9.11116 9.11116,1.5 18.5,1.5 L18.5,0.5 Z M0.5,18.5 C0.5,28.4411 8.55887,36.5 18.5,36.5 L18.5,35.5 C9.11116,35.5 1.5,27.8888 1.5,18.5 L0.5,18.5 Z" id="path14_stroke"></path>
                    </g>
                </g>
                <g id="Group-7" transform="translate(340.000000, 346.000000)" fill="#FF8800">
                    <g id="path13_fill-link" transform="translate(13.000000, 13.000000)">
                        <path d="M5.5,11 C8.53757,11 11,8.53757 11,5.5 C11,2.46243 8.53757,0 5.5,0 C2.46243,0 0,2.46243 0,5.5 C0,8.53757 2.46243,11 5.5,11 Z" id="path13_fill"></path>
                    </g>
                    <g id="path14_stroke-link">
                        <path d="M18.5,36.5 C28.4411,36.5 36.5,28.4411 36.5,18.5 L35.5,18.5 C35.5,27.8888 27.8888,35.5 18.5,35.5 L18.5,36.5 Z M36.5,18.5 C36.5,8.55887 28.4411,0.5 18.5,0.5 L18.5,1.5 C27.8888,1.5 35.5,9.11116 35.5,18.5 L36.5,18.5 Z M18.5,0.5 C8.55887,0.5 0.5,8.55887 0.5,18.5 L1.5,18.5 C1.5,9.11116 9.11116,1.5 18.5,1.5 L18.5,0.5 Z M0.5,18.5 C0.5,28.4411 8.55887,36.5 18.5,36.5 L18.5,35.5 C9.11116,35.5 1.5,27.8888 1.5,18.5 L0.5,18.5 Z" id="path14_stroke"></path>
                    </g>
                </g>
                <g id="Group-7" transform="translate(430.000000, 96.000000)" fill="#FF8800">
                    <g id="path13_fill-link" transform="translate(13.000000, 13.000000)">
                        <path d="M5.5,11 C8.53757,11 11,8.53757 11,5.5 C11,2.46243 8.53757,0 5.5,0 C2.46243,0 0,2.46243 0,5.5 C0,8.53757 2.46243,11 5.5,11 Z" id="path13_fill"></path>
                    </g>
                    <g id="path14_stroke-link">
                        <path d="M18.5,36.5 C28.4411,36.5 36.5,28.4411 36.5,18.5 L35.5,18.5 C35.5,27.8888 27.8888,35.5 18.5,35.5 L18.5,36.5 Z M36.5,18.5 C36.5,8.55887 28.4411,0.5 18.5,0.5 L18.5,1.5 C27.8888,1.5 35.5,9.11116 35.5,18.5 L36.5,18.5 Z M18.5,0.5 C8.55887,0.5 0.5,8.55887 0.5,18.5 L1.5,18.5 C1.5,9.11116 9.11116,1.5 18.5,1.5 L18.5,0.5 Z M0.5,18.5 C0.5,28.4411 8.55887,36.5 18.5,36.5 L18.5,35.5 C9.11116,35.5 1.5,27.8888 1.5,18.5 L0.5,18.5 Z" id="path14_stroke"></path>
                    </g>
                </g>
            </g>
            <g id="PiratenSignet-DE" transform="translate(242.000000, 252.000000) rotate(14.000000) translate(-242.000000, -252.000000) translate(160.000000, 170.000000)">
                <g id="Group" transform="translate(-0.000000, 0.000000)" fill="#FFFFFF">
                    <path d="M163.84274,82.073816 C163.84274,127.23319 127.236399,163.84274 82.0706067,163.84274 C36.9144423,163.84274 0.308101761,127.23319 0.308101761,82.073816 C0.308101761,36.9176517 36.9144423,0.308101761 82.0706067,0.308101761 C127.236399,0.308101761 163.84274,36.9176517 163.84274,82.073816 Z" id="Path"></path>
                </g>
                <g id="Group" transform="translate(4.000000, 4.000000)" fill="#FF8800">
                    <path d="M155.697025,77.9129752 C155.697025,120.874215 120.874215,155.703471 77.9097521,155.703471 C34.9517355,155.703471 0.125702479,120.874215 0.125702479,77.9129752 C0.125702479,34.9517355 34.9517355,0.12892562 77.9097521,0.12892562 C120.874215,0.12892562 155.697025,34.9517355 155.697025,77.9129752 Z" id="Path"></path>
                </g>
                <g id="Group" transform="translate(23.000000, 23.000000)">
                    <path d="M58.8685326,0.0352717391 C26.3704348,0.0352717391 0.0352717391,26.4538043 0.0352717391,58.9583152 C0.0352717391,91.456413 26.3704348,117.878152 58.8685326,117.878152 C91.3666304,117.878152 117.791576,91.456413 117.791576,58.9583152 C117.791576,26.4602174 91.3666304,0.0352717391 58.8685326,0.0352717391 L58.8685326,0.0352717391 Z" id="Path" fill="#FFFFFF"></path>
                    <path d="M58.8685326,4.46027174 C28.8105978,4.46027174 4.46347826,28.8939674 4.46347826,58.9583152 C4.46347826,89.0130435 28.8105978,113.449946 58.8685326,113.449946 C88.9232609,113.449946 113.366576,89.0130435 113.366576,58.9583152 C113.366576,28.9003804 88.9232609,4.46027174 58.8685326,4.46027174 L58.8685326,4.46027174 Z" id="Path" fill="#FFFFFF"></path>
                    <path d="M43.4483696,72.5090761 C44.1217391,72.1403261 44.8432065,71.7972283 45.5967391,71.470163 C54.5717935,67.6030978 59.0128261,60.8020652 59.0128261,52.4330435 C59.0128261,44.1345652 52.87875,36.9006522 43.4483696,34.373913 L43.4483696,72.5090761 L43.4483696,72.5090761 Z M61.4786413,28.3360326 C81.4424457,28.9548913 93.0500543,38.0389674 93.0500543,51.3588587 C93.0500543,63.5372283 85.5211413,70.203587 60.7411413,74.5997283 C42.2811957,77.88 37.397663,82.3306522 37.397663,89.9333152 C37.397663,94.5891848 38.9560326,98.154837 41.6783696,101.348533 C37.532337,98.7480435 34.2007609,93.3707065 34.2007609,87.2879348 C34.2007609,83.5491304 35.3038043,80.0059239 37.8080978,77.0078261 L37.8080978,33.4696739 C37.1924457,33.4279891 36.5703804,33.40875 35.9322826,33.40875 C35.6565217,33.40875 35.3871739,33.4215761 35.1242391,33.4376087 C34.7875543,33.4600543 34.6849457,33.0688587 35.037663,32.9149457 C35.8938043,32.5590217 36.8204891,32.2063043 37.8080978,31.8728261 L37.8080978,22.7246196 C37.8080978,22.5354348 37.9588043,22.3815217 38.1479891,22.3815217 L43.1116848,22.3815217 C43.2944565,22.3815217 43.4515761,22.5354348 43.4515761,22.7246196 L43.4515761,30.31125 C49.3772283,28.9484783 56.1558152,28.1692935 61.4786413,28.3360326 L61.4786413,28.3360326 Z" id="Shape" fill="#1D1D1B"></path>
                    <path d="M58.8717391,9.68369565 C86.1047283,9.68369565 108.139946,31.7285326 108.139946,58.9583152 C108.139946,86.1848913 86.1047283,108.226522 58.8717391,108.226522 C31.6483696,108.226522 9.68690217,86.1848913 9.68690217,58.9583152 C9.68690217,31.7285326 31.6483696,9.68369565 58.8717391,9.68369565 L58.8717391,9.68369565 Z M58.8685326,4.46027174 C28.8105978,4.46027174 4.46347826,28.8939674 4.46347826,58.9583152 C4.46347826,89.0130435 28.8105978,113.449946 58.8685326,113.449946 C88.9232609,113.449946 113.366576,89.0130435 113.366576,58.9583152 C113.366576,28.9003804 88.9232609,4.46027174 58.8685326,4.46027174 L58.8685326,4.46027174 Z" id="Shape" fill="#1D1D1B"></path>
                </g>
            </g>
        </g>
    </g>
</svg>